<svg id="Capa_1" enable-background="new 0 0 512 512" height="28" viewBox="0 0 512 512" width="28" xmlns="http://www.w3.org/2000/svg"><g><g><path d="m0 362.637v30h256l19.13-15-19.13-15z" fill="#b7e6fc"/><path d="m256 362.637h256v30h-256z" fill="#77cef9"/><path d="m0 485.544h256l19.13-15-19.13-15h-256z" fill="#b7e6fc"/></g><path d="m308.519 336.181h135.512v82.913h-135.512z" fill="#1e6ec1"/><path d="m67.97 429.087h135.512v82.913h-135.512z" fill="#3494dd"/><g><g><path d="m256 0c-32.072 0-65.255 7.837-98.628 23.293-26.246 12.155-52.684 29.039-78.578 50.182-43.81 35.77-78.794 81.699-78.794 81.699s34.984 45.929 78.794 81.699c25.895 21.143 52.332 38.027 78.578 50.182 33.372 15.456 66.556 23.293 98.628 23.293l32.525-155.304z" fill="#edf6ff"/><path d="m433.206 73.475c-25.895-21.143-52.333-38.027-78.58-50.182-33.371-15.456-66.554-23.293-98.626-23.293v310.348c32.072 0 65.255-7.837 98.626-23.293 26.246-12.155 52.684-29.039 78.58-50.182 43.809-35.77 78.794-81.699 78.794-81.699s-34.985-45.929-78.794-81.699z" fill="#d7e9fe"/></g><g><g><path d="m146.316 45.36 6.836 52.849 74.744 28.731c12.608-12.608 11.544-13.493 28.104-13.493l28.272-68.086-28.272-45.361c-39.722 0-79.444 15.12-109.684 45.36z" fill="#832e81"/><path d="m285.537 125.506 70.932-26.745 9.215-53.402c-30.24-30.239-69.962-45.359-109.684-45.359v113.446c16.561 0 16.929-.547 29.537 12.06z" fill="#3494dd"/><path d="m229.088 181.955-73.475 28.577-9.298 54.195c30.24 30.24 69.962 45.36 109.684 45.36l19.13-45.36-19.129-69.938c-16.561 1.423-14.304-.226-26.912-12.834z" fill="#face48"/><path d="m365.684 264.728-9.191-49.605-70.202-29.788c-12.214 12.214-12.7 8.985-28.739 9.367-.517.012-1.035.043-1.552.087v115.299c39.722 0 79.444-15.12 109.684-45.36z" fill="#7fb949"/></g><g><path d="" fill="none"/></g><g><path d="m146.316 264.728 84.763-84.763c-12.607-12.608-20.808-8.36-20.808-24.92l-54.657-27.666-54.657 27.666c-.001 39.721 15.119 79.443 45.359 109.683z" fill="#f28b55"/><path d="m301.728 155.044c0 16.561-1.713 18.801-14.32 31.408l78.276 78.276c30.24-30.24 45.36-69.962 45.36-109.684l-54.658-22.865z" fill="#49a78c"/></g><path d="m230.278 129.322-83.962-83.962c-30.24 30.24-45.36 69.962-45.36 109.684h109.315c0-16.561 7.399-13.114 20.007-25.722z" fill="#ed3f76"/><path d="m365.684 45.36-80.506 80.506c12.607 12.608 13.303 11.061 13.303 11.062l6.003 18.117h106.561c-.001-39.723-15.121-79.445-45.361-109.685z" fill="#77cef9"/></g><g><path d="m256 93.663c-33.899 0-61.38 27.481-61.38 61.38s27.481 61.38 61.38 61.38l22.799-61.38z" fill="#5a7799"/><path d="m317.38 155.044c0-33.899-27.481-61.38-61.38-61.38v122.761c33.899-.001 61.38-27.482 61.38-61.381z" fill="#3b526d"/></g></g><path d="m256 455.544h256v30h-256z" fill="#77cef9"/></g></svg>