<svg height="26" viewBox="0 0 74 74" width="26" xmlns="http://www.w3.org/2000/svg"><g id="Numbers"><text fill="#f00" font-family="ArialMT, Arial" font-size="18" transform="translate(26.989 -1010.544)">10<tspan x="0" y="124">20</tspan><tspan x="0" y="248">30</tspan><tspan x="0" y="372">40</tspan><tspan x="0" y="496">50</tspan><tspan x="0" y="620">60</tspan><tspan x="0" y="744">70</tspan><tspan x="0" y="868">80</tspan><tspan x="0" y="992">90</tspan><tspan x="-5.005" y="1116">100</tspan><tspan letter-spacing="-.074em" x="-4.337" y="1240">1</tspan><tspan x="4.337" y="1240">10</tspan><tspan x="-5.005" y="1364">120</tspan><tspan x="-5.005" y="1488">130</tspan><tspan x="-5.005" y="1612">140</tspan><tspan x="-5.005" y="1736">150</tspan><tspan x="-5.005" y="1860">160</tspan><tspan x="-5.005" y="1984">170</tspan><tspan x="-5.005" y="2108">180</tspan><tspan x="-5.005" y="2232">190</tspan><tspan x="-5.005" y="2356">200</tspan><tspan x="-5.005" y="2480">210</tspan><tspan x="-5.005" y="2604">220</tspan><tspan x="-5.005" y="2728">230</tspan><tspan x="-5.005" y="2852">240</tspan><tspan x="-5.005" y="2976">250</tspan><tspan x="-5.005" y="3100">260</tspan><tspan x="-5.005" y="3224">270</tspan><tspan x="-5.005" y="3348">280</tspan><tspan x="-5.005" y="3472">290</tspan><tspan x="-5.005" y="3596">300</tspan></text></g><g id="Layer_5" data-name="Layer 5"><g fill="#323c6b"><path d="m22 69.5h-9.937a.5.5 0 0 1 0-1h9.937a.5.5 0 0 1 0 1z"/><path d="m26.688 69.5h-1.25a.5.5 0 0 1 0-1h1.25a.5.5 0 0 1 0 1z"/><path d="m62.1 40.241a.5.5 0 0 1 -.43-.241l-.818-1.359a.5.5 0 0 1 .857-.516l.818 1.359a.5.5 0 0 1 -.429.758z"/><path d="m59.429 35.809a.5.5 0 0 1 -.429-.243l-7.211-11.972a.5.5 0 0 1 .857-.516l7.211 11.972a.5.5 0 0 1 -.171.686.5.5 0 0 1 -.257.073z"/></g><path d="m66.592 66h-59.184a4.437 4.437 0 0 1 -3.762-6.739l29.592-49.127a4.384 4.384 0 0 1 7.525 0l29.591 49.127a4.437 4.437 0 0 1 -3.762 6.739z" fill="#fed19a"/><path d="m66.592 66.5h-59.184a4.843 4.843 0 0 1 -4.26-2.494 4.909 4.909 0 0 1 .069-5l29.592-49.13a4.884 4.884 0 0 1 8.383 0l29.59 49.124a4.909 4.909 0 0 1 .069 5 4.843 4.843 0 0 1 -4.259 2.5zm-29.592-58a3.865 3.865 0 0 0 -3.334 1.892l-29.591 49.127a3.916 3.916 0 0 0 -.056 4 3.852 3.852 0 0 0 3.389 1.981h59.184a3.852 3.852 0 0 0 3.389-1.986 3.916 3.916 0 0 0 -.056-4l-29.591-49.122a3.865 3.865 0 0 0 -3.334-1.892z" fill="#323c6b"/><path d="m70.354 59.261-29.592-49.127a4.377 4.377 0 0 0 -5.262-1.867 4.347 4.347 0 0 1 2.262 1.867l29.592 49.127a4.437 4.437 0 0 1 -3.762 6.739h3a4.437 4.437 0 0 0 3.762-6.739z" fill="#f4bb87"/><rect fill="#828a9e" height="24" rx="2" width="4" x="35" y="25"/><path d="m37 49.5a2.5 2.5 0 0 1 -2.5-2.5v-20a2.5 2.5 0 0 1 5 0v20a2.5 2.5 0 0 1 -2.5 2.5zm0-24a1.5 1.5 0 0 0 -1.5 1.5v20a1.5 1.5 0 0 0 3 0v-20a1.5 1.5 0 0 0 -1.5-1.5z" fill="#323c6b"/><rect fill="#828a9e" height="5" rx="2" width="4" x="35" y="54"/><path d="m37 59.5a2.5 2.5 0 0 1 -2.5-2.5v-1a2.5 2.5 0 0 1 5 0v1a2.5 2.5 0 0 1 -2.5 2.5zm0-5a1.5 1.5 0 0 0 -1.5 1.5v1a1.5 1.5 0 0 0 3 0v-1a1.5 1.5 0 0 0 -1.5-1.5z" fill="#323c6b"/><path d="m66.592 66.5h-59.184a4.843 4.843 0 0 1 -4.26-2.494 4.909 4.909 0 0 1 .069-5l29.592-49.13a4.884 4.884 0 0 1 8.383 0l29.59 49.124a4.909 4.909 0 0 1 .069 5 4.843 4.843 0 0 1 -4.259 2.5zm-29.592-58a3.865 3.865 0 0 0 -3.334 1.892l-29.591 49.127a3.916 3.916 0 0 0 -.056 4 3.852 3.852 0 0 0 3.389 1.981h59.184a3.852 3.852 0 0 0 3.389-1.986 3.916 3.916 0 0 0 -.056-4l-29.591-49.122a3.865 3.865 0 0 0 -3.334-1.892z" fill="#323c6b"/><rect fill="#eeefee" height="1.951" rx=".976" transform="matrix(.525 -.851 .851 .525 -36.261 35.556)" width="14.39" x="6.509" y="49.267"/><rect fill="#eeefee" height="1.951" rx=".976" transform="matrix(.525 -.851 .851 .525 -25.614 36.012)" width="262.474" x="18.198" y="39.963"/></g></svg>