<?xml version="1.0"?>
<svg xmlns="http://www.w3.org/2000/svg" xmlns:xlink="http://www.w3.org/1999/xlink" xmlns:svgjs="http://svgjs.com/svgjs" version="1.1" width="28" height="28" x="0" y="0" viewBox="0 0 248.833 248.833" style="enable-background:new 0 0 512 512" xml:space="preserve"><g>
<path xmlns="http://www.w3.org/2000/svg" d="M26.655,56.916l9.898-23.606c1.028-3.675,4.548-6.394,8.849-6.394h73.695c4.301,0,7.82,2.719,8.849,6.394l9.898,23.606  H26.655z M206.833,137.917c23.159,0,42,18.841,42,42s-18.841,42-42,42s-42-18.841-42-42S183.674,137.917,206.833,137.917z   M205.5,156.417c-4.143,0-7.5,3.357-7.5,7.5v9h-8.167c-4.143,0-7.5,3.357-7.5,7.5s3.357,7.5,7.5,7.5H198v9  c0,4.143,3.357,7.5,7.5,7.5s7.5-3.357,7.5-7.5v-9h9.833c4.143,0,7.5-3.357,7.5-7.5s-3.357-7.5-7.5-7.5H213v-9  C213,159.774,209.643,156.417,205.5,156.417z M149.833,179.917c0-31.43,25.404-57,56.833-57c7.988,0,15.334,1.658,22.334,4.638  V78.666c0-3.728-2.689-6.75-6.417-6.75H7.083C3.355,71.916,0,74.939,0,78.666v120.5c0,3.728,3.355,6.75,7.083,6.75h149.051  C152.117,198.114,149.833,189.28,149.833,179.917z" fill="#ffffff" data-original="#000000" style=""/>
<g xmlns="http://www.w3.org/2000/svg">
</g>
<g xmlns="http://www.w3.org/2000/svg">
</g>
<g xmlns="http://www.w3.org/2000/svg">
</g>
<g xmlns="http://www.w3.org/2000/svg">
</g>
<g xmlns="http://www.w3.org/2000/svg">
</g>
<g xmlns="http://www.w3.org/2000/svg">
</g>
<g xmlns="http://www.w3.org/2000/svg">
</g>
<g xmlns="http://www.w3.org/2000/svg">
</g>
<g xmlns="http://www.w3.org/2000/svg">
</g>
<g xmlns="http://www.w3.org/2000/svg">
</g>
<g xmlns="http://www.w3.org/2000/svg">
</g>
<g xmlns="http://www.w3.org/2000/svg">
</g>
<g xmlns="http://www.w3.org/2000/svg">
</g>
<g xmlns="http://www.w3.org/2000/svg">
</g>
<g xmlns="http://www.w3.org/2000/svg">
</g>
</g></svg>
