<?xml version="1.0"?>
<svg xmlns="http://www.w3.org/2000/svg" xmlns:xlink="http://www.w3.org/1999/xlink" xmlns:svgjs="http://svgjs.com/svgjs" version="1.1" width="28" height="28" x="0" y="0" viewBox="0 0 512 512" style="enable-background:new 0 0 512 512" xml:space="preserve" class=""><g><g xmlns="http://www.w3.org/2000/svg"><g><path d="m390 105v257l-15 149.87-375 .13v-512h285l15.25 89.75z" fill="#ffffff" data-original="#fff5f5" style="" class=""/><path d="m390 105v257l-15 149.87-195 .13v-512h105l15.25 89.75z" fill="#ffffff" data-original="#efe2dd" style="" class=""/><path d="m390 105-105-105v105z" fill="#cdbfba" data-original="#cdbfba" style=""/></g><g><path d="m60 182h120v30h-120z" fill="#596c76" data-original="#596c76" style=""/></g><g><path d="m60 242h180v30h-180z" fill="#596c76" data-original="#596c76" style=""/></g><path d="m180 242h60v30h-60z" fill="#465a61" data-original="#465a61" style=""/><g><g><path d="m105 452c-24.813 0-45-20.187-45-45s20.187-45 45-45 45 20.187 45 45-20.187 45-45 45z" fill="#ff637b" data-original="#ff637b" style=""/><circle cx="105" cy="407" fill="#e63950" r="15" data-original="#e63950" style=""/></g></g><path d="m439.7 328.36c-8.78 22.69-19.7 50.94-19.7 108.64h-90c0-57.55-10.92-85.92-19.69-108.72-7.45-19.36-13.89-36.08-8.02-59.92 7.56-30.72 36.1-56.36 72.71-56.36 36.56 0 65.14 25.59 72.71 56.36 5.91 24.02-.54 40.69-8.01 60z" fill="#ffda2d" data-original="#ffda2d" style=""/><path d="m439.7 328.36c-8.78 22.69-19.7 50.94-19.7 108.64h-45v-225c36.56 0 65.14 25.59 72.71 56.36 5.91 24.02-.54 40.69-8.01 60z" fill="#fdbf00" data-original="#fdbf00" style="" class=""/><g><path d="m240 422v60c0 8.28 6.72 15 15 15h242c8.28 0 15-6.72 15-15v-60z" fill="#596c76" data-original="#596c76" style=""/></g><path d="m512 422v60c0 8.28-6.72 15-15 15h-122v-75z" fill="#465a61" data-original="#465a61" style=""/><path d="m240 482h272v30h-272z" fill="#ff637b" data-original="#ff637b" style=""/><path d="m375 482h137v30h-137z" fill="#e63950" data-original="#e63950" style=""/></g></g></svg>
