<svg height="28" viewBox="0 0 64 64" width="28" xmlns="http://www.w3.org/2000/svg"><g id="distribute"><path d="m61 13v14h-8-8v-14h4v3 3l4 2 4-2v-3-3z" fill="#ebe5dd"/><path d="m49 13v3 3l4 2 4-2v-3-3z" fill="#ffb655"/><path d="m19 35h26v26h-26z" fill="#ebe5dd"/><path d="m43 35v26h2v-26z" fill="#d9ccbc"/><path d="m37 35v10l-5 2-5-2v-10z" fill="#ffb655"/><path d="m37 35v10l-5 2-1-.4 4-1.6v-10z" fill="#ffa733"/><path d="m41 35h4v4h-4z" fill="#c0ab91"/><path d="m40 3v14h-8-8v-14h4v3 3l4 2 4-2v-3-3z" fill="#ebe5dd"/><path d="m28 3v3 3l4 2 4-2v-3-3z" fill="#ffb655"/><path d="m23 53h6v4h-6z" fill="#00d7df"/><path d="m19 35h4v4h-4z" fill="#c0ab91"/><path d="m19 17v14h-8-8v-14h4v3 3l4 2 4-2v-3-3z" fill="#ebe5dd"/><path d="m7 17v3 3l4 2 4-2v-3-3z" fill="#ffb655"/><path d="m30 37h4v2h-4z"/><path d="m30 40h4v2h-4z"/><path d="m29 52h-6a1 1 0 0 0 -1 1v4a1 1 0 0 0 1 1h6a1 1 0 0 0 1-1v-4a1 1 0 0 0 -1-1zm-1 4h-4v-2h4z"/><path d="m36 52h6v2h-6z"/><path d="m36 56h6v2h-6z"/><path d="m30 5h4v2h-4z"/><path d="m51 15h4v2h-4z"/><path d="m61 12h-16a1 1 0 0 0 -1 1v14a1 1 0 0 0 1 1h7v18a1 1 0 0 1 -1 1h-5v-12a1 1 0 0 0 -1-1h-12v-16h7a1 1 0 0 0 1-1v-14a1 1 0 0 0 -1-1h-16a1 1 0 0 0 -1 1v14a1 1 0 0 0 1 1h7v16h-12a1 1 0 0 0 -1 1v12h-5a1 1 0 0 1 -1-1v-14h7a1 1 0 0 0 1-1v-14a1 1 0 0 0 -1-1h-16a1 1 0 0 0 -1 1v14a1 1 0 0 0 1 1h7v14a3 3 0 0 0 3 3h5v12a1 1 0 0 0 1 1h26a1 1 0 0 0 1-1v-12h5a3 3 0 0 0 3-3v-18h7a1 1 0 0 0 1-1v-14a1 1 0 0 0 -1-1zm-32-8h6v4.382l-3 1.5-3-1.5zm-4 0h2v5a1 1 0 0 0 .553.895l4 2a1 1 0 0 0 .894 0l4-2a1 1 0 0 0 .553-.895v-5h2v12h-14zm-17 14h6v4.382l-3 1.5-3-1.5zm-4 0h2v5a1 1 0 0 0 .553.895l4 2a1 1 0 0 0 .894 0l4-2a1 1 0 0 0 .553-.895v-5h2v12h-14zm40 20h-2v-2h2zm-16-2h8v8.323l-4 1.6-4-1.6zm-6 0v2h-2v-2zm-2 24v-20h3a1 1 0 0 0 1-1v-3h2v9a1 1 0 0 0 .629.929l5 2a1 1 0 0 0 .742 0l5-2a1 1 0 0 0 .629-.929v-9h2v3a1 1 0 0 0 1 1h3v20zm30-46h6v4.382l-3 1.5-3-1.5zm10 12h-14v-12h2v5a1 1 0 0 0 .553.895l4 2a1 1 0 0 0 .894 0l4-2a1 1 0 0 0 .553-.895v-5h2z"/><path d="m9 19h4v2h-4z"/></g></svg>