<?xml version="1.0"?>
<svg xmlns="http://www.w3.org/2000/svg" xmlns:xlink="http://www.w3.org/1999/xlink" xmlns:svgjs="http://svgjs.com/svgjs" version="1.1" width="28" height="28" x="0" y="0" viewBox="0 0 512 512" style="enable-background:new 0 0 512 512" xml:space="preserve" class=""><g><g xmlns="http://www.w3.org/2000/svg"><path d="m13.5 132.75h145v325h-145z" fill="#ffffff" data-original="#ff5f7b" style="" class=""/><path d="m0 117.75h158.5v30h-158.5z" fill="#d6dfe7" data-original="#5f7883" style="" class=""/><path d="m353.5 132.75h145v325h-145z" fill="#ffffff" data-original="#ea344a" style="" class=""/><path d="m353.5 117.75h158.5v30h-158.5z" fill="#d6dfe7" data-original="#4b5055" style="" class=""/><path d="m78.5 182.75h30v30h-30z" fill="#f0f7ff" data-original="#f0f7ff" style=""/><path d="m78.5 247.75h30v30h-30z" fill="#f0f7ff" data-original="#f0f7ff" style=""/><path d="m78.5 312.75h30v30h-30z" fill="#f0f7ff" data-original="#f0f7ff" style=""/><path d="m78.5 377.75h30v30h-30z" fill="#f0f7ff" data-original="#f0f7ff" style=""/><path d="m368.5 91.59v366.16h-225v-366.16l112.5-52.34z" fill="#ffffff" data-original="#ffe987" style="" class=""/><path d="m368.5 91.59v366.16h-112.5v-418.5z" fill="#ffffff" data-original="#fecb6e" style="" class=""/><path d="m403.5 182.75h30v30h-30z" fill="#d7e9fc" data-original="#d7e9fc" style="" class=""/><path d="m403.5 247.75h30v30h-30z" fill="#d7e9fc" data-original="#d7e9fc" style="" class=""/><path d="m403.5 312.75h30v30h-30z" fill="#d7e9fc" data-original="#d7e9fc" style="" class=""/><path d="m403.5 377.75h30v30h-30z" fill="#d7e9fc" data-original="#d7e9fc" style="" class=""/><path d="m273.5 182.75h30v30h-30z" fill="#d6dfe7" data-original="#4b5055" style="" class=""/><path d="m273.5 247.75h30v30h-30z" fill="#d6dfe7" data-original="#4b5055" style="" class=""/><path d="m273.5 312.75h30v30h-30z" fill="#d6dfe7" data-original="#4b5055" style="" class=""/><path d="m208.5 182.75h30v30h-30z" fill="#d6dfe7" data-original="#5f7883" style="" class=""/><path d="m273.5 117.75h30v30h-30z" fill="#d6dfe7" data-original="#4b5055" style="" class=""/><g fill="#5f7883"><path d="m208.5 117.75h30v30h-30z" fill="#d6dfe7" data-original="#5f7883" style="" class=""/><path d="m208.5 247.75h30v30h-30z" fill="#d6dfe7" data-original="#5f7883" style="" class=""/><path d="m208.5 312.75h30v30h-30z" fill="#d6dfe7" data-original="#5f7883" style="" class=""/><path d="m208.5 377.75h95v80h-95z" fill="#d6dfe7" data-original="#5f7883" style="" class=""/></g><path d="m256 377.75h47.5v80h-47.5z" fill="#d6dfe7" data-original="#4b5055" style="" class=""/><path d="m0 442.75h512v30h-512z" fill="#fbfbfb" data-original="#bde760" style="" class=""/><path d="m256 442.75h256v30h-256z" fill="#fbfbfb" data-original="#00d880" style="" class=""/></g></g></svg>
