<svg height="28" viewBox="0 0 512.00046 512" width="28" xmlns="http://www.w3.org/2000/svg" xmlns:xlink="http://www.w3.org/1999/xlink"><linearGradient id="linear-gradient" gradientUnits="userSpaceOnUse" x1="15.819" x2="83.129" y1="75.681" y2="8.371"><stop offset="0" stop-color="#003f8a"/><stop offset=".518" stop-color="#00d7df"/><stop offset="1" stop-color="#006df0"/></linearGradient><linearGradient id="linear-gradient-2" x1="-13.431" x2="53.879" xlink:href="#linear-gradient" y1="46.431" y2="-20.879"/><linearGradient id="linear-gradient-3" x1="3.819" x2="71.129" xlink:href="#linear-gradient" y1="63.681" y2="-3.629"/><linearGradient id="linear-gradient-4" x1="8.069" x2="75.382" xlink:href="#linear-gradient" y1="67.931" y2=".618"/><linearGradient id="linear-gradient-5" x1="13.569" x2="80.882" xlink:href="#linear-gradient" y1="73.431" y2="6.118"/><linearGradient id="linear-gradient-6" x1="-9.431" x2="57.879" xlink:href="#linear-gradient" y1="50.431" y2="-16.879"/><linearGradient id="linear-gradient-7" x1="-5.681" x2="61.629" xlink:href="#linear-gradient" y1="54.181" y2="-13.129"/><path d="m62 53a1 1 0 0 0 -1 1v1h-51v-1a1 1 0 0 0 -2 0v4a1 1 0 0 0 2 0v-1h51v1a1 1 0 0 0 2 0v-4a1 1 0 0 0 -1-1z" fill="url(#linear-gradient)"/><path d="m6 8a1 1 0 0 0 0-2h-4a1 1 0 0 0 0 2h1v42h-1a1 1 0 0 0 0 2h4a1 1 0 0 0 0-2h-1v-42z" fill="url(#linear-gradient-2)"/><path d="m62 27h-2v-20a1 1 0 0 0 -1-1h-44a1 1 0 0 0 -1 1v5a1 1 0 0 0 1 1h3v9h-3a1 1 0 0 0 -1 1v4h-5a1 1 0 0 0 -1 1v23a1 1 0 0 0 1 1h53a1 1 0 0 0 1-1v-23a1 1 0 0 0 -1-1zm-42-14h33v9h-33zm-4 11h38a1 1 0 0 0 1-1v-11a1 1 0 0 0 -1-1h-38v-3h42v19h-42zm3 25v-13h8v13zm42 1h-32v-15a1 1 0 0 0 -1-1h-10a1 1 0 0 0 -1 1v15h-7v-21h51z" fill="url(#linear-gradient-3)"/><path d="m41 34h-7a1 1 0 0 0 -1 1v7a1 1 0 0 0 1 1h7a1 1 0 0 0 1-1v-7a1 1 0 0 0 -1-1zm-1 7h-5v-5h5z" fill="url(#linear-gradient-4)"/><path d="m52 34h-7a1 1 0 0 0 -1 1v7a1 1 0 0 0 1 1h7a1 1 0 0 0 1-1v-7a1 1 0 0 0 -1-1zm-1 7h-5v-5h5z" fill="url(#linear-gradient-5)"/><path d="m30 14h-8a1 1 0 0 0 0 2h8a1 1 0 0 0 0-2z" fill="url(#linear-gradient-6)"/><path d="m34 14h-1a1 1 0 0 0 0 2h1a1 1 0 0 0 0-2z" fill="url(#linear-gradient-7)"/></svg>