<svg height="512pt" viewBox="0 0 512.1051 512" width="512pt" xmlns="http://www.w3.org/2000/svg"><path d="m418.132812 76.867188v307.199218c0 18.851563-15.28125 34.132813-34.132812 34.132813h-341.332031c-18.851563 0-34.132813-15.28125-34.132813-34.132813v-307.199218zm0 0" fill="#a4c2f7"/><path d="m392.535156 76.867188v307.199218c0 18.851563-15.285156 34.132813-34.136718 34.132813h-315.730469c-18.851563 0-34.132813-15.28125-34.132813-34.132813v-307.199218zm0 0" fill="#e3e7f2"/><path d="m418.132812 42.734375v68.265625h-409.597656v-68.265625c0-18.851563 15.28125-34.132813 34.132813-34.132813h341.332031c18.851562 0 34.132812 15.28125 34.132812 34.132813zm0 0" fill="#a4c2f7"/><path d="m392.535156 42.734375v68.265625h-384v-68.265625c0-18.851563 15.28125-34.132813 34.132813-34.132813h315.730469c18.851562 0 34.136718 15.28125 34.136718 34.132813zm0 0" fill="#e3e7f2"/><path d="m76.800781 59.800781c0 9.425781-7.640625 17.066407-17.066406 17.066407s-17.066406-7.640626-17.066406-17.066407 7.640625-17.066406 17.066406-17.066406 17.066406 7.640625 17.066406 17.066406zm0 0" fill="#e3e7f2"/><path d="m145.066406 59.800781c0 9.425781-7.640625 17.066407-17.066406 17.066407s-17.066406-7.640626-17.066406-17.066407 7.640625-17.066406 17.066406-17.066406 17.066406 7.640625 17.066406 17.066406zm0 0" fill="#e3e7f2"/><path d="m213.332031 59.800781c0 9.425781-7.640625 17.066407-17.066406 17.066407s-17.066406-7.640626-17.066406-17.066407 7.640625-17.066406 17.066406-17.066406 17.066406 7.640625 17.066406 17.066406zm0 0" fill="#e3e7f2"/><path d="m8.535156 42.734375v341.332031c0 18.851563 15.28125 34.132813 34.132813 34.132813h25.597656c-18.851563 0-34.132813-15.28125-34.132813-34.132813v-341.332031c0-18.851563 15.28125-34.132813 34.132813-34.132813h-25.597656c-18.851563 0-34.132813 15.28125-34.132813 34.132813zm0 0" fill="#fff"/><path d="m17.066406 119.535156v264.507813h-17.066406v-264.507813zm0 0" fill="#fff"/><g fill="#428dff"><path d="m59.734375 34.199219c-14.140625 0-25.601563 11.464843-25.601563 25.601562 0 14.140625 11.460938 25.601563 25.601563 25.601563 14.136719 0 25.597656-11.460938 25.597656-25.601563 0-14.136719-11.460937-25.601562-25.597656-25.601562zm0 34.136719c-4.714844 0-8.535156-3.820313-8.535156-8.535157 0-4.710937 3.820312-8.53125 8.535156-8.53125 4.710937 0 8.53125 3.820313 8.53125 8.53125 0 4.714844-3.820313 8.535157-8.53125 8.535157zm0 0"/><path d="m128 34.199219c-14.136719 0-25.601562 11.464843-25.601562 25.601562 0 14.140625 11.464843 25.601563 25.601562 25.601563s25.601562-11.460938 25.601562-25.601563c0-14.136719-11.464843-25.601562-25.601562-25.601562zm0 34.136719c-4.710938 0-8.535156-3.820313-8.535156-8.535157 0-4.710937 3.824218-8.53125 8.535156-8.53125s8.535156 3.820313 8.535156 8.53125c0 4.714844-3.824218 8.535157-8.535156 8.535157zm0 0"/><path d="m196.265625 34.199219c-14.136719 0-25.597656 11.464843-25.597656 25.601562 0 14.140625 11.460937 25.601563 25.597656 25.601563 14.140625 0 25.601563-11.460938 25.601563-25.601563 0-14.136719-11.460938-25.601562-25.601563-25.601562zm0 34.136719c-4.710937 0-8.53125-3.820313-8.53125-8.535157 0-4.710937 3.820313-8.53125 8.53125-8.53125 4.714844 0 8.535156 3.820313 8.535156 8.53125 0 4.714844-3.820312 8.535157-8.535156 8.535157zm0 0"/><path d="m366.933594 51.269531h-85.332032c-4.714843 0-8.535156 3.820313-8.535156 8.53125 0 4.714844 3.820313 8.535157 8.535156 8.535157h85.332032c4.710937 0 8.53125-3.820313 8.53125-8.535157 0-4.710937-3.820313-8.53125-8.53125-8.53125zm0 0"/><path d="m8.535156 196.335938c2.257813-.035157 4.421875-.917969 6.058594-2.476563 3.296875-3.363281 3.296875-8.75 0-12.117187l-1.28125-1.023438c-.476562-.324219-.992188-.582031-1.535156-.769531-.484375-.246094-1.003906-.417969-1.539063-.511719-.5625-.09375-1.132812-.152344-1.703125-.167969-2.261718.03125-4.425781.914063-6.058594 2.472657-.773437.816406-1.382812 1.773437-1.792968 2.816406-1.289063 3.183594-.5859378 6.824218 1.792968 9.300781.8125.773437 1.769532 1.378906 2.8125 1.792969 1.027344.4375 2.128907.667968 3.246094.683594zm0 0"/><path d="m42.667969 426.734375h341.332031c23.550781-.027344 42.636719-19.113281 42.667969-42.667969v-341.332031c-.03125-23.550781-19.117188-42.6367188-42.667969-42.6679688h-341.332031c-23.554688.03125-42.6406252 19.1171878-42.667969 42.6679688v110.933594c0 4.710937 3.820312 8.53125 8.535156 8.53125 4.710938 0 8.53125-3.820313 8.53125-8.53125v-34.132813h392.535156v264.53125c0 14.140625-11.464843 25.601563-25.601562 25.601563h-341.332031c-14.140625 0-25.601563-11.460938-25.601563-25.601563v-162.132812c0-4.710938-3.820312-8.53125-8.53125-8.53125-4.714844 0-8.535156 3.820312-8.535156 8.53125v162.132812c.0273438 23.554688 19.113281 42.640625 42.667969 42.667969zm-25.601563-324.265625v-59.734375c0-14.136719 11.460938-25.601563 25.601563-25.601563h341.332031c14.136719 0 25.601562 11.464844 25.601562 25.601563v59.734375zm0 0"/><path d="m483.898438 2.550781c-3.332032-3.332031-8.734376-3.332031-12.066407 0l-25.597656 25.601563c-3.234375 3.347656-3.1875 8.667968.101563 11.960937 3.292968 3.292969 8.617187 3.335938 11.964843.105469l11.03125-11.035156v5.015625c0 4.714843 3.820313 8.535156 8.535157 8.535156 4.710937 0 8.53125-3.820313 8.53125-8.535156v-5.015625l11.035156 11.035156c2.140625 2.214844 5.316406 3.105469 8.296875 2.324219 2.984375-.78125 5.316406-3.109375 6.097656-6.09375s-.109375-6.15625-2.328125-8.296875zm0 0"/><path d="m28.101562 509.550781c2.140626 2.21875 5.3125 3.109375 8.296876 2.328125 2.984374-.78125 5.3125-3.113281 6.09375-6.097656.78125-2.980469-.109376-6.15625-2.324219-8.296875l-11.035157-11.015625h5c4.714844 0 8.535157-3.820312 8.535157-8.535156 0-4.710938-3.820313-8.53125-8.535157-8.53125h-5l11.035157-11.035156c3.230469-3.347657 3.1875-8.671876-.105469-11.960938-3.292969-3.292969-8.613281-3.339844-11.960938-.105469l-25.601562 25.601563c-3.332031 3.332031-3.332031 8.734375 0 12.066406zm0 0"/><path d="m263.875 469.402344c-4.710938 0-8.53125 3.820312-8.53125 8.53125 0 4.714844 3.820312 8.535156 8.53125 8.535156h32.820312c4.714844 0 8.535157-3.820312 8.535157-8.535156 0-4.710938-3.820313-8.53125-8.535157-8.53125zm0 0"/><path d="m132.589844 469.402344c-4.710938 0-8.53125 3.820312-8.53125 8.53125 0 4.714844 3.820312 8.535156 8.53125 8.535156h32.820312c4.710938 0 8.535156-3.820312 8.535156-8.535156 0-4.710938-3.824218-8.53125-8.535156-8.53125zm0 0"/><path d="m329.515625 469.402344c-4.714844 0-8.535156 3.820312-8.535156 8.53125 0 4.714844 3.820312 8.535156 8.535156 8.535156h32.816406c4.714844 0 8.535157-3.820312 8.535157-8.535156 0-4.710938-3.820313-8.53125-8.535157-8.53125zm0 0"/><path d="m66.953125 469.402344c-4.714844 0-8.535156 3.820312-8.535156 8.53125 0 4.714844 3.820312 8.535156 8.535156 8.535156h32.808594c4.714843 0 8.535156-3.820312 8.535156-8.535156 0-4.710938-3.820313-8.53125-8.535156-8.53125zm0 0"/><path d="m198.230469 469.402344c-4.714844 0-8.535157 3.820312-8.535157 8.53125 0 4.714844 3.820313 8.535156 8.535157 8.535156h32.816406c4.714844 0 8.535156-3.820312 8.535156-8.535156 0-4.710938-3.820312-8.53125-8.535156-8.53125zm0 0"/><path d="m386.628906 477.933594c0 4.714844 3.820313 8.535156 8.53125 8.535156h32.8125c4.710938 0 8.53125-3.820312 8.53125-8.535156 0-4.710938-3.820312-8.53125-8.53125-8.53125h-32.8125c-4.710937 0-8.53125 3.820312-8.53125 8.53125zm0 0"/><path d="m469.332031 469.402344h-8.53125c-4.714843 0-8.535156 3.820312-8.535156 8.53125 0 4.714844 3.820313 8.535156 8.535156 8.535156h8.53125c9.425781 0 17.066407-7.640625 17.066407-17.066406v-8.535156c0-4.710938-3.820313-8.53125-8.53125-8.53125-4.714844 0-8.535157 3.820312-8.535157 8.53125zm0 0"/><path d="m469.332031 166.117188c0 4.714843 3.820313 8.535156 8.535157 8.535156 4.710937 0 8.53125-3.820313 8.53125-8.535156v-32.820313c0-4.710937-3.820313-8.53125-8.53125-8.53125-4.714844 0-8.535157 3.820313-8.535157 8.53125zm0 0"/><path d="m469.332031 297.402344c0 4.714844 3.820313 8.535156 8.535157 8.535156 4.710937 0 8.53125-3.820312 8.53125-8.535156v-32.800782c0-4.714843-3.820313-8.535156-8.53125-8.535156-4.714844 0-8.535157 3.820313-8.535157 8.535156zm0 0"/><path d="m469.332031 428.6875c0 4.714844 3.820313 8.535156 8.535157 8.535156 4.710937 0 8.53125-3.820312 8.53125-8.535156v-32.828125c0-4.710937-3.820313-8.53125-8.53125-8.53125-4.714844 0-8.535157 3.820313-8.535157 8.53125zm0 0"/><path d="m469.332031 363.042969c0 4.710937 3.820313 8.53125 8.535157 8.53125 4.710937 0 8.53125-3.820313 8.53125-8.53125v-32.820313c0-4.714844-3.820313-8.535156-8.53125-8.535156-4.714844 0-8.535157 3.820312-8.535157 8.535156zm0 0"/><path d="m469.332031 231.757812c0 4.710938 3.820313 8.53125 8.535157 8.53125 4.710937 0 8.53125-3.820312 8.53125-8.53125v-32.8125c0-4.710937-3.820313-8.53125-8.53125-8.53125-4.714844 0-8.535157 3.820313-8.535157 8.53125zm0 0"/><path d="m477.867188 109.011719c4.710937 0 8.53125-3.820313 8.53125-8.53125v-32.820313c0-4.710937-3.820313-8.53125-8.53125-8.53125-4.714844 0-8.535157 3.820313-8.535157 8.53125v32.820313c0 4.710937 3.820313 8.53125 8.535157 8.53125zm0 0"/><path d="m384 162.199219c0-9.421875-7.640625-17.066407-17.066406-17.066407h-307.199219c-9.425781 0-17.066406 7.644532-17.066406 17.066407v85.335937c0 9.425782 7.640625 17.066406 17.066406 17.066406h307.199219c9.425781 0 17.066406-7.640624 17.066406-17.066406zm-324.265625 85.335937v-85.335937h307.199219v85.335937zm0 0"/><path d="m42.667969 367c0 9.425781 7.640625 17.066406 17.066406 17.066406h68.265625c9.425781 0 17.066406-7.640625 17.066406-17.066406v-68.265625c0-9.425781-7.640625-17.066406-17.066406-17.066406h-68.265625c-9.425781 0-17.066406 7.640625-17.066406 17.066406zm17.066406-68.265625h68.265625v68.265625h-68.265625zm0 0"/><path d="m179.199219 281.667969c-9.425781 0-17.066407 7.640625-17.066407 17.066406v68.265625c0 9.425781 7.640626 17.066406 17.066407 17.066406h68.265625c9.425781 0 17.070312-7.640625 17.070312-17.066406v-68.265625c0-9.425781-7.644531-17.066406-17.070312-17.066406zm0 85.332031v-68.265625h68.265625v68.265625zm0 0"/><path d="m366.933594 281.667969h-68.265625c-9.425781 0-17.066407 7.640625-17.066407 17.066406v68.265625c0 9.425781 7.640626 17.066406 17.066407 17.066406h68.265625c9.425781 0 17.066406-7.640625 17.066406-17.066406v-68.265625c0-9.425781-7.640625-17.066406-17.066406-17.066406zm-68.265625 85.332031v-68.265625h68.265625v68.265625zm0 0"/></g></svg>