<?xml version="1.0"?>
<svg xmlns="http://www.w3.org/2000/svg" xmlns:xlink="http://www.w3.org/1999/xlink" xmlns:svgjs="http://svgjs.com/svgjs" version="1.1" width="28" height="28" x="0" y="0" viewBox="0 0 512 512" style="enable-background:new 0 0 512 512" xml:space="preserve" class=""><g><rect xmlns="http://www.w3.org/2000/svg" fill="#ffffff" height="304" rx="16" width="432" x="48" y="168" data-original="#4b55a5" style="" class=""/><rect xmlns="http://www.w3.org/2000/svg" fill="#ffffff" height="304" rx="16" width="416" x="48" y="168" data-original="#6478b9" style="" class=""/><rect xmlns="http://www.w3.org/2000/svg" fill="#383838" height="208" rx="8" width="320" x="96" y="216" data-original="#55525b" style="" class=""/><rect xmlns="http://www.w3.org/2000/svg" fill="#ffffff" height="176" rx="8" width="288" x="112" y="232" data-original="#fab991" style="" class=""/><g xmlns="http://www.w3.org/2000/svg" fill="#4b55a5"><path d="m48.69 179.356 47.31 47.311v-2.667a8 8 0 0 1 8-8h2.667l-47.31-47.31a16.028 16.028 0 0 0 -10.667 10.666z" fill="#ffffff" data-original="#4b55a5" style="" class=""/><path d="m452.643 168.69-47.31 47.31h2.667a8 8 0 0 1 8 8v2.667l47.31-47.311a16.028 16.028 0 0 0 -10.667-10.666z" fill="#ffffff" data-original="#4b55a5" style="" class=""/><path d="m59.357 471.31 47.31-47.31h-2.667a8 8 0 0 1 -8-8v-2.667l-47.31 47.311a16.028 16.028 0 0 0 10.667 10.666z" fill="#ffffff" data-original="#4b55a5" style="" class=""/><path d="m463.31 460.644-47.31-47.311v2.667a8 8 0 0 1 -8 8h-2.667l47.31 47.31a16.028 16.028 0 0 0 10.667-10.666z" fill="#ffffff" data-original="#4b55a5" style="" class=""/></g><rect xmlns="http://www.w3.org/2000/svg" fill="#363636" height="32" rx="16" width="480" x="16" y="40" data-original="#353744" style="" class=""/><rect xmlns="http://www.w3.org/2000/svg" fill="#383838" height="32" rx="16" width="240" x="16" y="40" data-original="#55525b" style="" class=""/><path xmlns="http://www.w3.org/2000/svg" d="m112 72h288a0 0 0 0 1 0 0v88a8 8 0 0 1 -8 8h-272a8 8 0 0 1 -8-8v-88a0 0 0 0 1 0 0z" fill="#363636" data-original="#353744" style="" class=""/><path xmlns="http://www.w3.org/2000/svg" d="m112 88h144a0 0 0 0 1 0 0v80a0 0 0 0 1 0 0h-136a8 8 0 0 1 -8-8v-72a0 0 0 0 1 0 0z" fill="#383838" data-original="#55525b" style="" class=""/><path xmlns="http://www.w3.org/2000/svg" d="m256 24h208a16 16 0 0 1 16 16 0 0 0 0 1 0 0h-240a0 0 0 0 1 0 0 16 16 0 0 1 16-16z" fill="#fabe19" data-original="#fabe19" style=""/><path xmlns="http://www.w3.org/2000/svg" d="m464 40h16v112h-16z" fill="#f5871e" data-original="#f5871e" style=""/><path xmlns="http://www.w3.org/2000/svg" d="m464 152h16v8h-16z" fill="#d7e6f0" data-original="#d7e6f0" style=""/><path xmlns="http://www.w3.org/2000/svg" d="m464 160h16a8 8 0 0 1 8 8v52a4 4 0 0 1 -4 4h-24a4 4 0 0 1 -4-4v-52a8 8 0 0 1 8-8z" fill="#fabe19" data-original="#fabe19" style=""/><path xmlns="http://www.w3.org/2000/svg" d="m476 168h12a0 0 0 0 1 0 0v52a4 4 0 0 1 -4 4h-12a0 0 0 0 1 0 0v-52a4 4 0 0 1 4-4z" fill="#f5871e" data-original="#f5871e" style=""/><rect xmlns="http://www.w3.org/2000/svg" fill="#000000" height="24" rx="12" width="192" x="160" y="256" data-original="#f0915a" style="" class=""/><rect xmlns="http://www.w3.org/2000/svg" fill="#000000" height="13.333" rx="6.667" width="128" x="192" y="306.667" data-original="#f0915a" style="" class=""/><path xmlns="http://www.w3.org/2000/svg" d="m230.141 488a6.145 6.145 0 0 0 3.406-1.031l22.453-14.969 22.453 14.969a6.145 6.145 0 0 0 3.406 1.031 6.14 6.14 0 0 0 6.141-6.141v-65.859h-64v65.859a6.14 6.14 0 0 0 6.141 6.141z" fill="#f04b37" data-original="#f04b37" style="" class=""/><path xmlns="http://www.w3.org/2000/svg" d="m308 392c0 4.3-8.429 7.431-9.489 11.394-1.1 4.1 4.6 11.022 2.528 14.613-2.108 3.642-10.971 2.15-13.927 5.106s-1.464 11.819-5.106 13.926c-3.59 2.077-10.511-3.624-14.612-2.528-3.964 1.06-7.094 9.489-11.394 9.489s-7.431-8.429-11.394-9.489c-4.1-1.1-11.022 4.6-14.613 2.528-3.642-2.108-2.15-10.971-5.106-13.927s-11.819-1.464-13.926-5.106c-2.077-3.59 3.624-10.511 2.528-14.612-1.06-3.964-9.489-7.094-9.489-11.394s8.429-7.431 9.489-11.394c1.1-4.1-4.605-11.022-2.528-14.613 2.108-3.642 10.971-2.15 13.927-5.106s1.464-11.819 5.106-13.926c3.59-2.077 10.511 3.624 14.612 2.528 3.964-1.06 7.094-9.489 11.394-9.489s7.431 8.429 11.394 9.489c4.1 1.1 11.022-4.6 14.613-2.528 3.642 2.108 2.15 10.971 5.106 13.927s11.819 1.464 13.926 5.106c2.077 3.59-3.624 10.511-2.528 14.612 1.06 3.964 9.489 7.094 9.489 11.394z" fill="#f5871e" data-original="#f5871e" style=""/><circle xmlns="http://www.w3.org/2000/svg" cx="256" cy="392" fill="#fabe19" r="37.333" data-original="#fabe19" style=""/><path xmlns="http://www.w3.org/2000/svg" d="m259.587 366.717 5.979 12.116 13.371 1.943a4 4 0 0 1 2.217 6.823l-9.675 9.43 2.284 13.317a4 4 0 0 1 -5.8 4.217l-11.963-6.288-11.959 6.288a4 4 0 0 1 -5.8-4.217l2.284-13.317-9.675-9.43a4 4 0 0 1 2.217-6.823l13.371-1.943 5.979-12.116a4 4 0 0 1 7.17 0z" fill="#f5871e" data-original="#f5871e" style=""/></g></svg>
