<?xml version="1.0" encoding="UTF-8"?>
<svg xmlns="http://www.w3.org/2000/svg" xmlns:xlink="http://www.w3.org/1999/xlink" width="28pt" height="28pt" viewBox="0 0 28 28" version="1.1">
<g id="surface1">
<path style=" stroke:none;fill-rule:nonzero;fill:rgb(27.45098%,45.098039%,54.901961%);fill-opacity:1;" d="M 13.351562 10.511719 L 13.351562 2.355469 C 13.351562 1.867188 13.746094 1.476562 14.234375 1.476562 L 25.855469 1.476562 C 26.34375 1.476562 26.738281 1.867188 26.738281 2.355469 L 26.738281 10.511719 C 26.738281 11 26.34375 11.394531 25.855469 11.394531 L 14.234375 11.394531 C 13.746094 11.394531 13.351562 11 13.351562 10.511719 Z M 13.351562 10.511719 "/>
<path style=" stroke:none;fill-rule:nonzero;fill:rgb(100%,54.901961%,27.45098%);fill-opacity:1;" d="M 14.03125 8.445312 C 13.902344 8.445312 13.773438 8.386719 13.6875 8.277344 C 13.539062 8.089844 13.570312 7.8125 13.761719 7.664062 L 17.347656 4.835938 C 17.535156 4.6875 17.8125 4.71875 17.960938 4.910156 C 18.109375 5.097656 18.078125 5.375 17.886719 5.523438 L 14.304688 8.351562 C 14.222656 8.414062 14.128906 8.445312 14.03125 8.445312 Z M 14.03125 8.445312 "/>
<path style=" stroke:none;fill-rule:nonzero;fill:rgb(100%,71.372549%,61.960784%);fill-opacity:1;" d="M 8.921875 1.988281 C 8.921875 3.039062 8.066406 3.894531 7.015625 3.894531 C 5.964844 3.894531 5.109375 3.039062 5.109375 1.988281 C 5.109375 0.933594 5.964844 0.0820312 7.015625 0.0820312 C 8.066406 0.0820312 8.921875 0.933594 8.921875 1.988281 Z M 8.921875 1.988281 "/>
<path style=" stroke:none;fill-rule:nonzero;fill:rgb(20.392157%,24.313725%,41.960784%);fill-opacity:1;" d="M 8.335938 23.34375 C 7.722656 23.34375 7.226562 22.847656 7.226562 22.234375 L 7.226562 13.375 C 7.226562 12.761719 7.722656 12.265625 8.335938 12.265625 C 8.949219 12.265625 9.445312 12.761719 9.445312 13.375 L 9.445312 22.234375 C 9.445312 22.847656 8.949219 23.34375 8.335938 23.34375 Z M 8.335938 23.34375 "/>
<path style=" stroke:none;fill-rule:nonzero;fill:rgb(25.490196%,29.411765%,50.980392%);fill-opacity:1;" d="M 5.660156 23.34375 C 5.046875 23.34375 4.550781 22.847656 4.550781 22.234375 L 4.550781 13.375 C 4.550781 12.761719 5.046875 12.265625 5.660156 12.265625 C 6.273438 12.265625 6.769531 12.761719 6.769531 13.375 L 6.769531 22.234375 C 6.769531 22.847656 6.273438 23.34375 5.660156 23.34375 Z M 5.660156 23.34375 "/>
<path style=" stroke:none;fill-rule:nonzero;fill:rgb(14.509804%,17.647059%,36.078431%);fill-opacity:1;" d="M 14.800781 7.523438 C 14.53125 7.09375 13.964844 6.960938 13.535156 7.226562 L 11.671875 8.382812 L 11.671875 6.664062 C 11.667969 5.46875 10.683594 4.5 9.488281 4.5 L 9.453125 4.5 C 8.867188 4.5 5.125 4.5 4.519531 4.5 C 3.300781 4.5 2.304688 5.476562 2.296875 6.675781 C 2.296875 6.675781 2.296875 6.679688 2.296875 6.679688 L 2.296875 13.46875 C 2.296875 13.976562 2.710938 14.390625 3.222656 14.390625 C 3.730469 14.390625 4.144531 13.976562 4.144531 13.46875 L 4.144531 6.683594 C 4.148438 6.507812 4.324219 6.347656 4.519531 6.347656 L 4.550781 6.347656 L 4.550781 13.375 L 9.445312 13.375 C 9.445312 12.71875 9.445312 7.074219 9.445312 6.339844 C 9.449219 6.339844 9.492188 6.339844 9.488281 6.339844 C 9.671875 6.339844 9.839844 6.488281 9.84375 6.671875 L 9.84375 10.035156 C 9.847656 10.753906 10.636719 11.1875 11.246094 10.8125 L 14.503906 8.789062 C 14.933594 8.519531 15.066406 7.953125 14.800781 7.523438 Z M 14.800781 7.523438 "/>
<path style=" stroke:none;fill-rule:nonzero;fill:rgb(10.588235%,13.333333%,29.019608%);fill-opacity:1;" d="M 14.800781 7.523438 C 14.53125 7.09375 13.964844 6.960938 13.535156 7.226562 L 11.671875 8.382812 L 11.671875 6.664062 C 11.667969 5.46875 10.683594 4.5 9.488281 4.5 C 9.171875 4.5 7.300781 4.5 6.996094 4.5 L 6.996094 13.375 L 9.445312 13.375 C 9.445312 12.71875 9.445312 7.074219 9.445312 6.339844 C 9.449219 6.339844 9.492188 6.339844 9.488281 6.339844 C 9.671875 6.339844 9.839844 6.488281 9.84375 6.671875 L 9.84375 10.035156 C 9.847656 10.753906 10.636719 11.1875 11.246094 10.8125 L 14.503906 8.789062 C 14.933594 8.519531 15.066406 7.953125 14.800781 7.523438 Z M 14.800781 7.523438 "/>
<path style=" stroke:none;fill-rule:nonzero;fill:rgb(100%,71.372549%,61.960784%);fill-opacity:1;" d="M 14.800781 7.523438 C 14.53125 7.09375 13.964844 6.960938 13.535156 7.226562 L 14.503906 8.789062 C 14.933594 8.519531 15.066406 7.953125 14.800781 7.523438 Z M 14.800781 7.523438 "/>
<path style=" stroke:none;fill-rule:nonzero;fill:rgb(100%,100%,100%);fill-opacity:1;" d="M 14.167969 8.992188 L 13.207031 7.425781 L 13.542969 7.222656 L 14.503906 8.789062 Z M 14.167969 8.992188 "/>
<path style=" stroke:none;fill-rule:nonzero;fill:rgb(100%,100%,100%);fill-opacity:1;" d="M 2.296875 12.992188 L 2.296875 13.46875 C 2.296875 13.976562 2.710938 14.390625 3.222656 14.390625 C 3.730469 14.390625 4.144531 13.976562 4.144531 13.46875 L 4.144531 12.992188 Z M 2.296875 12.992188 "/>
<path style=" stroke:none;fill-rule:nonzero;fill:rgb(100%,71.372549%,61.960784%);fill-opacity:1;" d="M 2.296875 13.445312 L 2.296875 13.46875 C 2.296875 13.976562 2.710938 14.390625 3.222656 14.390625 C 3.730469 14.390625 4.144531 13.976562 4.144531 13.46875 L 4.144531 13.445312 Z M 2.296875 13.445312 "/>
<path style=" stroke:none;fill-rule:nonzero;fill:rgb(100%,100%,100%);fill-opacity:1;" d="M 5.589844 4.5 L 6.996094 8.199219 L 8.40625 4.5 Z M 5.589844 4.5 "/>
<path style=" stroke:none;fill-rule:nonzero;fill:rgb(100%,23.529412%,23.529412%);fill-opacity:1;" d="M 7.609375 5.757812 L 7.296875 5.191406 L 7.566406 4.699219 C 7.617188 4.609375 7.550781 4.5 7.449219 4.5 L 6.546875 4.5 C 6.445312 4.5 6.378906 4.609375 6.429688 4.699219 L 6.699219 5.191406 L 6.386719 5.757812 C 6.34375 5.839844 6.328125 5.929688 6.347656 6.015625 L 6.539062 6.996094 L 6.996094 8.199219 L 7.457031 6.996094 L 7.652344 6.015625 C 7.667969 5.929688 7.65625 5.835938 7.609375 5.757812 Z M 7.609375 5.757812 "/>
<path style=" stroke:none;fill-rule:nonzero;fill:rgb(14.509804%,17.647059%,36.078431%);fill-opacity:1;" d="M 7.679688 7.34375 L 8.902344 7.34375 L 8.902344 7.71875 L 7.679688 7.71875 Z M 7.679688 7.34375 "/>
<path style=" stroke:none;fill-rule:nonzero;fill:rgb(50.196078%,22.352941%,10.588235%);fill-opacity:1;" d="M 25.324219 17.941406 C 25.324219 18.96875 24.492188 19.800781 23.46875 19.800781 C 22.441406 19.800781 21.609375 18.96875 21.609375 17.941406 C 21.609375 16.917969 22.441406 16.082031 23.46875 16.082031 C 24.492188 16.082031 25.324219 16.917969 25.324219 17.941406 Z M 25.324219 17.941406 "/>
<path style=" stroke:none;fill-rule:nonzero;fill:rgb(50.196078%,22.352941%,10.588235%);fill-opacity:1;" d="M 25.867188 20.394531 C 25.320312 20.394531 21.597656 20.394531 21.050781 20.394531 C 19.886719 20.394531 18.925781 21.34375 18.917969 22.507812 L 18.917969 24.585938 L 20.710938 24.585938 L 20.710938 22.515625 C 20.714844 22.335938 20.871094 22.1875 21.050781 22.1875 L 21.070312 22.1875 L 21.070312 24.585938 L 25.820312 24.585938 L 25.820312 22.1875 L 25.867188 22.1875 C 26.046875 22.1875 26.207031 22.335938 26.207031 22.515625 L 26.207031 24.585938 L 28 24.585938 L 28 22.507812 C 27.992188 21.34375 27.03125 20.394531 25.867188 20.394531 Z M 25.867188 20.394531 "/>
<path style=" stroke:none;fill-rule:nonzero;fill:rgb(33.333333%,78.039216%,65.098039%);fill-opacity:1;" d="M 25.867188 20.394531 L 24.398438 20.394531 C 23.824219 20.847656 23.074219 20.832031 22.550781 20.394531 L 21.050781 20.394531 C 19.886719 20.394531 18.925781 21.34375 18.917969 22.507812 L 18.917969 23.8125 L 20.710938 23.8125 L 20.710938 22.515625 C 20.714844 22.335938 20.871094 22.1875 21.050781 22.1875 L 21.070312 22.1875 L 21.070312 24.585938 L 25.820312 24.585938 L 25.820312 22.1875 L 25.867188 22.1875 C 26.046875 22.1875 26.207031 22.335938 26.207031 22.515625 L 26.207031 23.8125 L 28 23.8125 L 28 22.507812 C 27.992188 21.34375 27.03125 20.394531 25.867188 20.394531 Z M 25.867188 20.394531 "/>
<path style=" stroke:none;fill-rule:nonzero;fill:rgb(100%,71.372549%,61.960784%);fill-opacity:1;" d="M 15.867188 17.941406 C 15.867188 18.96875 15.035156 19.800781 14.007812 19.800781 C 12.980469 19.800781 12.148438 18.96875 12.148438 17.941406 C 12.148438 16.917969 12.980469 16.082031 14.007812 16.082031 C 15.035156 16.082031 15.867188 16.917969 15.867188 17.941406 Z M 15.867188 17.941406 "/>
<path style=" stroke:none;fill-rule:nonzero;fill:rgb(100%,71.372549%,61.960784%);fill-opacity:1;" d="M 16.410156 20.394531 C 15.863281 20.394531 12.140625 20.394531 11.59375 20.394531 C 10.429688 20.394531 9.464844 21.34375 9.460938 22.507812 L 9.460938 24.585938 L 11.253906 24.585938 L 11.253906 22.515625 C 11.253906 22.335938 11.414062 22.1875 11.59375 22.1875 L 11.609375 22.1875 L 11.609375 24.585938 L 16.363281 24.585938 L 16.363281 22.1875 L 16.410156 22.1875 C 16.589844 22.1875 16.746094 22.335938 16.746094 22.515625 L 16.746094 24.585938 L 18.542969 24.585938 L 18.542969 22.507812 C 18.535156 21.34375 17.574219 20.394531 16.410156 20.394531 Z M 16.410156 20.394531 "/>
<path style=" stroke:none;fill-rule:nonzero;fill:rgb(14.509804%,17.647059%,36.078431%);fill-opacity:1;" d="M 16.410156 20.394531 L 14.863281 20.394531 C 14.292969 20.847656 13.539062 20.832031 13.019531 20.394531 L 11.59375 20.394531 C 10.429688 20.394531 9.464844 21.34375 9.460938 22.507812 L 9.460938 23.8125 L 11.253906 23.8125 L 11.253906 22.515625 C 11.253906 22.335938 11.414062 22.1875 11.59375 22.1875 L 11.609375 22.1875 L 11.609375 24.585938 L 16.363281 24.585938 L 16.363281 22.1875 L 16.410156 22.1875 C 16.589844 22.1875 16.746094 22.335938 16.746094 22.515625 L 16.746094 23.8125 L 18.542969 23.8125 L 18.542969 22.507812 C 18.535156 21.34375 17.574219 20.394531 16.410156 20.394531 Z M 16.410156 20.394531 "/>
<path style=" stroke:none;fill-rule:nonzero;fill:rgb(100%,71.372549%,61.960784%);fill-opacity:1;" d="M 6.40625 17.914062 C 6.40625 18.941406 5.574219 19.773438 4.546875 19.773438 C 3.519531 19.773438 2.6875 18.941406 2.6875 17.914062 C 2.6875 16.886719 3.519531 16.054688 4.546875 16.054688 C 5.574219 16.054688 6.40625 16.886719 6.40625 17.914062 Z M 6.40625 17.914062 "/>
<path style=" stroke:none;fill-rule:nonzero;fill:rgb(100%,71.372549%,61.960784%);fill-opacity:1;" d="M 6.949219 20.363281 C 6.402344 20.363281 2.679688 20.363281 2.132812 20.363281 C 0.96875 20.363281 0.00390625 21.3125 0 22.476562 L 0 24.558594 L 1.792969 24.558594 L 1.792969 22.484375 C 1.792969 22.304688 1.953125 22.160156 2.132812 22.160156 L 2.152344 22.160156 L 2.152344 24.558594 L 6.902344 24.558594 L 6.902344 22.160156 L 6.949219 22.160156 C 7.128906 22.160156 7.285156 22.304688 7.289062 22.484375 L 7.289062 24.558594 L 9.082031 24.558594 L 9.082031 22.476562 C 9.074219 21.3125 8.113281 20.363281 6.949219 20.363281 Z M 6.949219 20.363281 "/>
<path style=" stroke:none;fill-rule:nonzero;fill:rgb(47.058824%,74.509804%,100%);fill-opacity:1;" d="M 6.949219 20.363281 L 5.40625 20.363281 C 4.832031 20.820312 4.082031 20.800781 3.558594 20.363281 L 2.132812 20.363281 C 0.96875 20.363281 0.00390625 21.3125 0 22.476562 L 0 23.78125 L 1.792969 23.78125 L 1.792969 22.484375 C 1.792969 22.304688 1.953125 22.160156 2.132812 22.160156 L 2.152344 22.160156 L 2.152344 24.558594 L 6.902344 24.558594 L 6.902344 22.160156 L 6.949219 22.160156 C 7.128906 22.160156 7.285156 22.304688 7.289062 22.484375 L 7.289062 23.78125 L 9.082031 23.78125 L 9.082031 22.476562 C 9.074219 21.3125 8.113281 20.363281 6.949219 20.363281 Z M 6.949219 20.363281 "/>
<path style=" stroke:none;fill-rule:nonzero;fill:rgb(100%,71.372549%,61.960784%);fill-opacity:1;" d="M 21.125 21.273438 C 21.125 22.300781 20.292969 23.132812 19.265625 23.132812 C 18.238281 23.132812 17.40625 22.300781 17.40625 21.273438 C 17.40625 20.246094 18.238281 19.414062 19.265625 19.414062 C 20.292969 19.414062 21.125 20.246094 21.125 21.273438 Z M 21.125 21.273438 "/>
<path style=" stroke:none;fill-rule:nonzero;fill:rgb(100%,71.372549%,61.960784%);fill-opacity:1;" d="M 21.664062 23.726562 C 21.117188 23.726562 17.394531 23.726562 16.847656 23.726562 C 15.683594 23.726562 14.722656 24.671875 14.714844 25.835938 L 14.714844 27.917969 L 16.511719 27.917969 L 16.511719 25.847656 C 16.511719 25.667969 16.667969 25.519531 16.847656 25.519531 L 16.867188 25.519531 L 16.867188 27.917969 L 21.617188 27.917969 L 21.617188 25.519531 L 21.664062 25.519531 C 21.84375 25.519531 22.003906 25.667969 22.003906 25.847656 L 22.003906 27.917969 L 23.796875 27.917969 L 23.796875 25.835938 C 23.792969 24.671875 22.828125 23.726562 21.664062 23.726562 Z M 21.664062 23.726562 "/>
<path style=" stroke:none;fill-rule:nonzero;fill:rgb(47.058824%,74.509804%,100%);fill-opacity:1;" d="M 21.664062 23.726562 L 20.195312 23.726562 C 19.621094 24.179688 18.871094 24.160156 18.347656 23.726562 L 16.847656 23.726562 C 15.683594 23.726562 14.722656 24.671875 14.714844 25.835938 L 14.714844 27.144531 L 16.511719 27.144531 L 16.511719 25.847656 C 16.511719 25.667969 16.667969 25.519531 16.847656 25.519531 L 16.867188 25.519531 L 16.867188 27.917969 L 21.617188 27.917969 L 21.617188 25.519531 L 21.664062 25.519531 C 21.84375 25.519531 22.003906 25.667969 22.003906 25.847656 L 22.003906 27.144531 L 23.796875 27.144531 L 23.796875 25.835938 C 23.792969 24.671875 22.828125 23.726562 21.664062 23.726562 Z M 21.664062 23.726562 "/>
<path style=" stroke:none;fill-rule:nonzero;fill:rgb(72.941176%,40.392157%,27.45098%);fill-opacity:1;" d="M 11.664062 21.273438 C 11.664062 22.300781 10.832031 23.132812 9.804688 23.132812 C 8.777344 23.132812 7.945312 22.300781 7.945312 21.273438 C 7.945312 20.246094 8.777344 19.414062 9.804688 19.414062 C 10.832031 19.414062 11.664062 20.246094 11.664062 21.273438 Z M 11.664062 21.273438 "/>
<path style=" stroke:none;fill-rule:nonzero;fill:rgb(72.941176%,40.392157%,27.45098%);fill-opacity:1;" d="M 12.207031 23.726562 C 11.660156 23.726562 7.9375 23.726562 7.390625 23.726562 C 6.226562 23.726562 5.261719 24.671875 5.257812 25.835938 L 5.257812 27.917969 L 7.050781 27.917969 L 7.050781 25.847656 C 7.050781 25.667969 7.210938 25.519531 7.390625 25.519531 L 7.410156 25.519531 L 7.410156 27.917969 L 12.160156 27.917969 L 12.160156 25.519531 L 12.207031 25.519531 C 12.386719 25.519531 12.542969 25.667969 12.546875 25.847656 L 12.546875 27.917969 L 14.339844 27.917969 L 14.339844 25.835938 C 14.332031 24.671875 13.371094 23.726562 12.207031 23.726562 Z M 12.207031 23.726562 "/>
<path style=" stroke:none;fill-rule:nonzero;fill:rgb(100%,23.529412%,23.529412%);fill-opacity:1;" d="M 12.207031 23.726562 L 10.664062 23.726562 C 10.089844 24.179688 9.339844 24.160156 8.816406 23.726562 L 7.390625 23.726562 C 6.226562 23.726562 5.261719 24.671875 5.257812 25.835938 L 5.257812 27.144531 L 7.050781 27.144531 L 7.050781 25.847656 C 7.050781 25.667969 7.210938 25.519531 7.390625 25.519531 L 7.410156 25.519531 L 7.410156 27.917969 L 12.160156 27.917969 L 12.160156 25.519531 L 12.207031 25.519531 C 12.386719 25.519531 12.542969 25.667969 12.546875 25.847656 L 12.546875 27.144531 L 14.339844 27.144531 L 14.339844 25.835938 C 14.332031 24.671875 13.371094 23.726562 12.207031 23.726562 Z M 12.207031 23.726562 "/>
</g>
</svg>
