<?xml version="1.0" encoding="UTF-8"?>
<svg xmlns="http://www.w3.org/2000/svg" xmlns:xlink="http://www.w3.org/1999/xlink" width="24pt" height="24pt" viewBox="0 0 24 24" version="1.1">
<g id="surface1">
<path style=" stroke:none;fill-rule:nonzero;fill:rgb(100%,41.176471%,52.54902%);fill-opacity:1;" d="M 18.414062 0 L 3.675781 0 C 3.15625 0 2.738281 0.421875 2.738281 0.9375 L 2.738281 18.726562 C 2.738281 19.242188 3.15625 19.664062 3.675781 19.664062 L 4.621094 19.664062 C 4.6875 19.664062 4.75 19.636719 4.792969 19.589844 L 19.300781 4.050781 C 19.339844 4.007812 19.363281 3.949219 19.363281 3.890625 L 19.363281 0.949219 C 19.363281 0.425781 18.9375 0 18.414062 0 Z M 18.414062 0 "/>
<path style=" stroke:none;fill-rule:nonzero;fill:rgb(85.098039%,97.647059%,97.254902%);fill-opacity:1;" d="M 21.261719 5.789062 L 21.261719 20.367188 C 21.261719 20.882812 20.84375 21.304688 20.324219 21.304688 L 5.324219 21.304688 C 4.808594 21.304688 4.386719 20.882812 4.386719 20.367188 L 4.386719 2.695312 C 4.386719 2.179688 4.808594 1.757812 5.324219 1.757812 L 17.230469 1.757812 Z M 21.261719 5.789062 "/>
<path style=" stroke:none;fill-rule:nonzero;fill:rgb(75.686275%,91.764706%,95.686275%);fill-opacity:1;" d="M 21.261719 5.789062 L 21.261719 20.367188 C 21.261719 20.882812 20.84375 21.304688 20.324219 21.304688 L 5.324219 21.304688 C 4.808594 21.304688 4.386719 20.882812 4.386719 20.367188 L 4.386719 20.132812 L 19.355469 20.132812 C 19.878906 20.132812 20.300781 19.707031 20.300781 19.183594 L 20.300781 5.789062 L 17.664062 2.191406 Z M 21.261719 5.789062 "/>
<path style=" stroke:none;fill-rule:nonzero;fill:rgb(68.235294%,78.823529%,83.921569%);fill-opacity:1;" d="M 21.261719 5.789062 L 17.539062 5.789062 C 17.371094 5.789062 17.230469 5.648438 17.230469 5.480469 L 17.230469 1.757812 C 17.292969 1.757812 17.351562 1.78125 17.398438 1.828125 L 21.195312 5.625 C 21.238281 5.667969 21.261719 5.726562 21.261719 5.789062 Z M 21.261719 5.789062 "/>
<path style=" stroke:none;fill-rule:nonzero;fill:rgb(56.078431%,69.803922%,73.72549%);fill-opacity:1;" d="M 21.261719 5.789062 L 20.300781 5.789062 L 17.398438 1.828125 L 21.195312 5.625 C 21.238281 5.667969 21.261719 5.726562 21.261719 5.789062 Z M 21.261719 5.789062 "/>
<path style=" stroke:none;fill-rule:nonzero;fill:rgb(68.235294%,78.823529%,83.921569%);fill-opacity:1;" d="M 8.628906 8.925781 L 17.039062 8.925781 C 17.234375 8.925781 17.390625 8.769531 17.390625 8.574219 C 17.390625 8.382812 17.234375 8.222656 17.039062 8.222656 L 8.628906 8.222656 C 8.433594 8.222656 8.277344 8.382812 8.277344 8.574219 C 8.277344 8.769531 8.433594 8.925781 8.628906 8.925781 Z M 8.628906 8.925781 "/>
<path style=" stroke:none;fill-rule:nonzero;fill:rgb(68.235294%,78.823529%,83.921569%);fill-opacity:1;" d="M 17.039062 10.296875 L 8.628906 10.296875 C 8.433594 10.296875 8.277344 10.457031 8.277344 10.648438 C 8.277344 10.84375 8.433594 11 8.628906 11 L 17.039062 11 C 17.234375 11 17.390625 10.84375 17.390625 10.648438 C 17.390625 10.457031 17.234375 10.296875 17.039062 10.296875 Z M 17.039062 10.296875 "/>
<path style=" stroke:none;fill-rule:nonzero;fill:rgb(68.235294%,78.823529%,83.921569%);fill-opacity:1;" d="M 17.039062 12.414062 L 15.378906 12.414062 C 15.183594 12.414062 15.027344 12.570312 15.027344 12.765625 C 15.027344 12.957031 15.183594 13.117188 15.378906 13.117188 L 17.039062 13.117188 C 17.234375 13.117188 17.390625 12.957031 17.390625 12.765625 C 17.390625 12.570312 17.234375 12.414062 17.039062 12.414062 Z M 17.039062 12.414062 "/>
<path style=" stroke:none;fill-rule:nonzero;fill:rgb(68.235294%,78.823529%,83.921569%);fill-opacity:1;" d="M 13.722656 12.414062 L 8.628906 12.414062 C 8.433594 12.414062 8.277344 12.570312 8.277344 12.765625 C 8.277344 12.957031 8.433594 13.117188 8.628906 13.117188 L 13.722656 13.117188 C 13.917969 13.117188 14.074219 12.957031 14.074219 12.765625 C 14.074219 12.570312 13.917969 12.414062 13.722656 12.414062 Z M 13.722656 12.414062 "/>
<path style=" stroke:none;fill-rule:nonzero;fill:rgb(100%,41.176471%,52.54902%);fill-opacity:1;" d="M 17.25 19.585938 C 17.25 22.019531 15.269531 24 12.832031 24 C 12.644531 24 12.457031 23.988281 12.273438 23.964844 L 12.269531 23.964844 C 10.101562 23.6875 8.417969 21.828125 8.417969 19.585938 C 8.417969 17.339844 10.101562 15.484375 12.269531 15.203125 L 12.273438 15.203125 C 12.457031 15.179688 12.644531 15.167969 12.832031 15.167969 C 15.269531 15.167969 17.25 17.148438 17.25 19.585938 Z M 17.25 19.585938 "/>
<path style=" stroke:none;fill-rule:nonzero;fill:rgb(91.764706%,20.392157%,52.941176%);fill-opacity:1;" d="M 17.25 19.585938 C 17.25 22.019531 15.269531 24 12.832031 24 C 12.644531 24 12.457031 23.988281 12.273438 23.964844 C 14.441406 23.6875 16.125 21.828125 16.125 19.585938 C 16.125 17.339844 14.441406 15.484375 12.273438 15.203125 C 12.457031 15.179688 12.644531 15.167969 12.832031 15.167969 C 15.269531 15.167969 17.25 17.148438 17.25 19.585938 Z M 17.25 19.585938 "/>
<path style=" stroke:none;fill-rule:nonzero;fill:rgb(100%,100%,100%);fill-opacity:1;" d="M 14.621094 19.246094 C 14.480469 19.382812 14.257812 19.382812 14.121094 19.246094 L 13.183594 18.308594 L 13.183594 21.707031 C 13.183594 21.902344 13.027344 22.058594 12.832031 22.058594 C 12.640625 22.058594 12.480469 21.902344 12.480469 21.707031 L 12.480469 18.308594 L 11.542969 19.246094 C 11.40625 19.382812 11.183594 19.382812 11.046875 19.246094 C 10.910156 19.109375 10.910156 18.886719 11.046875 18.75 L 12.585938 17.210938 C 12.652344 17.144531 12.742188 17.109375 12.832031 17.109375 C 12.921875 17.109375 13.011719 17.144531 13.082031 17.210938 L 14.621094 18.75 C 14.757812 18.886719 14.757812 19.109375 14.621094 19.246094 Z M 14.621094 19.246094 "/>
</g>
</svg>
